# xmcd CD database file
#
# Track frame offsets:
#	150
#	19239
#	37208
#	52861
#	72317
#	94448
#	119405
#	138274
#	159003
#	177102
#	194958
#
# Disc length: 2832 seconds
#
# Revision: 0
# Processed by: cddbd v1.5PL3 Copyright (c) Steve Scherf et al.
# Submitted via: CDex 1.51
#
DISCID=9c0b0e0b
DTITLE=Remember the Future (Remasterd as a CD) - Enigma
DYEAR=2004
DGENRE=New Age
TTITLE0=Sadeness (part 1)
TTITLE1=Mea Culpa
TTITLE2=Principles Of Lust
TTITLE3=The Rivers Of Belief
TTITLE4=Return To Innocence
TTITLE5=The Eyes Of Truth
TTITLE6=Age Of Loneliness (Carly's Song)
TTITLE7=Beyond The Invisible
TTITLE8=T.N.T. For The Brain
TTITLE9=Gravity Of Love
TTITLE10=Push The Limits
EXTD=YEAR: 2004
EXTT0=
EXTT1=
EXTT2=
EXTT3=
EXTT4=
EXTT5=
EXTT6=
EXTT7=
EXTT8=
EXTT9=
EXTT10=
PLAYORDER=
